<svg width="150" height="150" viewBox="0 0 100 100">
        <desc>Created with Fabric.js 4.6.0</desc>
        <defs></defs>
        <g transform="matrix(1.67 0 0 1.73 50 50)" id="Cs4EWDeXEfBdbLJbPg0IG">
          <g>
            <g
              transform="matrix(0.14 0 0 0.14 -23.71 -23.71)"
              id="qX8TBfq1bz67D_GPfr2MJ"
            >
              <path
                transform=" translate(-183.27, -113.28)"
                d="M 206.9 99.148 L 197.39610000000002 89.648 L 159.63410000000002 127.41 L 169.13410000000002 136.91389999999998 z"
                
              />
            </g>
            <g
              transform="matrix(0.14 0 0 0.14 -25.38 -25.37)"
              id="Sz4eywiINe9yK2Jtk_Q_2"
            >
              <path
                transform=" translate(-171.59, -101.61)"
                d="M 150.54 118.31 L 188.298 80.55199999999999 L 192.6496 84.9036 L 154.89159999999998 122.66159999999999 z"
               
              />
            </g>
            <g
              transform="matrix(0.14 0 0 0.14 -21.67 -21.67)"
              id="kIYrDofyGlCHh8F-MZbMi"
            >
              <path
                transform=" translate(-197.53, -127.51)"
                d="M 221.16 113.38 L 183.398 151.142 L 173.898 141.642 L 211.66 103.88 z"
                
              />
            </g>
            <g
              transform="matrix(0.14 0 0 0.14 -19.64 -19.64)"
              id="nlcZ4NPy6hRXOkk28FQbb"
            >
              <path
                transform=" translate(-211.78, -141.77)"
                d="M 235.41 127.64 L 197.648 165.402 L 188.148 155.902 L 225.91 118.13999999999999 z"
                
              />
            </g>
            <g
              transform="matrix(0.14 0 0 0.14 -17.91 -17.91)"
              id="-psJJyGD4_F7LM8OxQWHh"
            >
              <path
                transform=" translate(-223.89, -153.87)"
                d="M 245.36 137.59 L 207.60600000000002 175.344 L 202.41070000000002 170.1487 L 240.1647 132.3947 z"
    
              />
            </g>
            <g
              transform="matrix(0.14 0 0 0.14 -11.37 -11.62)"
              id="XPqB0iegtfsIfUPD8WXKi"
            >
              <path
                transform=" translate(-269.66, -197.91)"
                d="M 189.32 203.12 L 198.7419 212.5341 L 215.38989999999998 195.8861 C 238.1169 221.4991 262.6169 248.8741 287.3429 276.4951 C 306.4719 259.43309999999997 326.12789999999995 241.83909999999997 345.8699 224.15109999999999 L 346.38162 223.67844 C 347.59642 222.59253999999999 348.79182 221.51824 350.00272 220.44013999999999 C 321.22172 194.66714 292.59272 169.04214 265.90472 145.35413999999997 L 282.52972 128.72913999999997 L 273.11562 119.31503999999997 L 252.48261999999997 139.95203999999995 L 209.97461999999996 182.46003999999996 z"
                
              />
            </g>
            <g
              transform="matrix(0.14 0 0 0.14 16.84 -16.62)"
              id="WZvVrq0vdUQUNYz1Izqtn"
            >
              <path
                transform=" translate(-467.12, -162.88)"
                d="M 452 142.94 L 487.05899999999997 177.987 L 482.23479999999995 182.8151 L 447.1758 147.7681 z"
                
              />
            </g>
            <g
              transform="matrix(0.14 0 0 0.14 18.44 -18.22)"
              id="t70QwBqhd6Z3aybaKedrS"
            >
              <path
                transform=" translate(-478.32, -151.67)"
                d="M 465.2 129.73 L 500.255 164.785 L 491.4347 173.6053 L 456.3797 138.5503 z"
               
              />
            </g>
            <g
              transform="matrix(0.14 0 0 0.14 20.33 -20.11)"
              id="FccvnqueHWQ4nRe3KzYKA"
            >
              <path
                transform=" translate(-491.56, -138.43)"
                d="M 478.44 116.49 L 513.499 151.54899999999998 L 504.67870000000005 160.36929999999998 L 469.6197000000001 125.31029999999998 z"
                
              />
            </g>
            <g
              transform="matrix(0.14 0 0 0.14 22.22 -22)"
              id="aXxI3K-6AHBjf0QptGwyZ"
            >
              <path
                transform=" translate(-504.8, -125.21)"
                d="M 526.74 138.33 L 526.736094 138.322188 L 491.677094 103.26318800000001 L 482.85679400000004 112.09128800000002 L 517.9267940000001 147.15028800000002 z"
                
              />
            </g>
            <g
              transform="matrix(0.14 0 0 0.14 23.77 -23.55)"
              id="rEpgCiTRSotwAllAdrnRL"
            >
              <path
                transform=" translate(-515.64, -114.36)"
                d="M 500.14 94.809 L 535.191 129.86 L 531.148 133.90300000000002 L 496.09700000000004 98.85200000000002 z"
                
              />
            </g>
            <g
              transform="matrix(0.14 0 0 0.14 14.36 14.11)"
              id="3X9DGk9_BtX6rwtYuqJJw"
            >
              <path
                transform=" translate(-449.73, -377.97)"
                d="M 541.06 466.41 C 521.7479999999999 436.41400000000004 458.15799999999996 336.59000000000003 451.01699999999994 311.31000000000006 L 450.74746999999996 310.36469000000005 L 450.01309 309.71625000000006 C 437.97808999999995 299.0642500000001 425.41508999999996 287.8762500000001 412.66109 276.4892500000001 C 411.93062 277.3056600000001 411.20799 278.1064500000001 410.47749 278.9228500000001 L 406.15328999999997 283.7822500000001 C 387.14928999999995 304.99725000000007 368.23528999999996 326.13425000000007 349.99728999999996 346.5942500000001 C 360.14529 357.9852500000001 370.15729 369.2232500000001 379.72029 380.0122500000001 L 380.36872999999997 380.7466300000001 L 381.30622999999997 381.0200700000001 C 406.55222999999995 388.1294700000001 506.40622999999994 451.7310700000001 536.41623 471.0510700000001 L 549.45523 479.4494700000001 z"
                
              />
            </g>
            <g
              transform="matrix(0.14 0 0 0.14 -2.46 2.68)"
              id="C1Eb3zqagg-jioPCuugWD"
            >
              <path
                transform=" translate(-332, -298)"
                d="M 406.15 279.01 C 429.81 252.60399999999998 453.267 226.393 474.97799999999995 201.91199999999998 L 490.44699999999995 217.36899999999997 L 499.1852999999999 208.62289999999996 L 480.00929999999994 189.44689999999997 L 440.54029999999995 149.98589999999996 L 421.38429999999994 130.82189999999997 L 412.6381999999999 139.56799999999998 L 428.07219999999995 155.00199999999998 C 402.24819999999994 177.916 374.4821999999999 202.772 346.62719999999996 227.72099999999998 L 346.15063999999995 228.15458999999998 C 315.59963999999997 255.51758999999998 285.04164 282.87759 257.13463999999993 307.59959 L 256.45104999999995 308.20506 L 256.20104999999995 309.07615 C 249.57604999999995 332.54915 190.53704999999997 425.22614999999996 172.60304999999994 453.07615 L 164.81004999999993 465.18115 L 176.91904999999994 457.38035 C 204.77404999999993 439.44235000000003 297.4790499999999 380.39235 320.91904999999997 373.79435 L 321.79404999999997 373.53654 L 322.39561 372.85295 C 347.20061 344.85295 374.65761 314.16495000000003 402.12561 283.51695 z"
            
              />
            </g>
          </g>
        </g>
      </svg>